<svg id="Layer_1" data-name="Layer 1" xmlns="http://www.w3.org/2000/svg" viewBox="0 0 569.5 156.8"><defs><style>.cls-1{fill:#0060a3;}</style></defs><polygon class="cls-1" points="308.26 44.07 276.19 44.07 276.19 55.81 286.36 55.81 286.36 113.73 298.1 113.73 298.1 55.81 308.26 55.81 308.26 44.07"/><path class="cls-1" d="M21.61,44.79H0v68.94H11.74V85.51h9.87A17.08,17.08,0,0,0,38.72,68.45v-6.6A17.08,17.08,0,0,0,21.61,44.79ZM26.5,67c0,4.71-3.54,8.53-7.91,8.53H11.74V54.81h6.85c4.37,0,7.91,3.82,7.91,8.53Z"/><path class="cls-1" d="M536.58,0l-9.66,9.66a96.15,96.15,0,0,1,0,137.48l9.66,9.66a109.82,109.82,0,0,0,0-156.8Z"/><path class="cls-1" d="M350.9,0a109.79,109.79,0,0,0,0,156.8l9.66-9.66a96.13,96.13,0,0,1,0-137.48Z"/><path class="cls-1" d="M59.26,113.73V85.51h6.36l8.55,28.22H85.81L76.5,83a17.29,17.29,0,0,0,7.69-14.56v-6.6c0-9.43-7.19-17.06-16.06-17.06H47.85v68.94Zm0-58.92h6a6.59,6.59,0,0,1,2.85.66,8.62,8.62,0,0,1,4.57,7.87V67a9.73,9.73,0,0,1-.33,2.5c-.93,3.49-3.75,6-7.09,6h-6Z"/><path class="cls-1" d="M160,44.79H140.14v68.94H160a17.11,17.11,0,0,0,17.11-17.11V61.9A17.11,17.11,0,0,0,160,44.79Zm5,50.36c0,4.72-3.1,8.55-6.92,8.55h-6.18V54.81h6.18c3.82,0,6.92,3.83,6.92,8.56Z"/><path class="cls-1" d="M131,97.84A17.11,17.11,0,0,1,113.9,115h-1.84A17.12,17.12,0,0,1,94.94,97.84V60.25a17.13,17.13,0,0,1,17.12-17.12h1.84A17.12,17.12,0,0,1,131,60.25ZM119.27,60A6.29,6.29,0,0,0,113,53.73h0A6.28,6.28,0,0,0,106.69,60V97.41A6.28,6.28,0,0,0,113,103.7h0a6.29,6.29,0,0,0,6.29-6.29Z"/><path class="cls-1" d="M210.52,44.79V97.41a6.29,6.29,0,0,1-12.58,0V44.79H186.2V97.84A17.11,17.11,0,0,0,203.31,115h1.84a17.11,17.11,0,0,0,17.11-17.11v-53Z"/><path class="cls-1" d="M255.72,95.68v1.73a6.3,6.3,0,0,1-12.59,0V60a6.3,6.3,0,0,1,12.59,0V62.4h11.74V60.25a17.12,17.12,0,0,0-17.11-17.12h-1.84a17.12,17.12,0,0,0-17.12,17.12V97.84A17.11,17.11,0,0,0,248.51,115h1.84a17.11,17.11,0,0,0,17.11-17.11V95.68Z"/><path class="cls-1" d="M367.24,44.77H384.8q9.56,0,13.94,4.67T403.13,63a21.24,21.24,0,0,1-.48,4.44,16.61,16.61,0,0,1-1.47,4.15A13.44,13.44,0,0,1,398.6,75a11.4,11.4,0,0,1-3.68,2.39A15.72,15.72,0,0,1,402,83.23q2.47,3.83,2.48,10.5a30,30,0,0,1-1,7.92,16.92,16.92,0,0,1-3.2,6.3,15,15,0,0,1-5.73,4.2,21.57,21.57,0,0,1-8.59,1.53H367.24ZM379.08,73h4.29A7.74,7.74,0,0,0,389,70.78q2.29-2.25,2.3-6.54,0-9.73-7.74-9.74h-4.48Zm0,30.92h5q4.77,0,6.68-2.67t1.91-7.92q0-5.34-2.19-8t-7.54-2.63h-3.82Z"/><path class="cls-1" d="M411.91,113.68V44.77h11.84v58.6h18.61v10.31Z"/><path class="cls-1" d="M447.13,44.77H459v52q0,7.55,6.3,7.55t6.3-7.55v-52H483.4V96.31q0,9-4.82,13.65t-13.31,4.67q-8.5,0-13.32-4.67t-4.82-13.65Z"/><path class="cls-1" d="M492.37,113.68V44.77h31.69v10.3H504.21V72.83h15.27V83.14H504.21v20.23H525.4v10.31Z"/></svg>